<?xml version="1.0" encoding="UTF-8"?>
<svg id="_レイヤー_1" xmlns="http://www.w3.org/2000/svg" version="1.1" viewBox="0 0 1324.95 305.06">
  <!-- Generator: Adobe Illustrator 30.4.0, SVG Export Plug-In . SVG Version: 2.1.4 Build 226)  -->
  <defs>
    <style>
      .st0 {
        fill: #fe531d;
      }

      .st1 {
        fill: #fff;
      }

      .st2 {
        fill: #213156;
      }

      .st3 {
        fill: #fe531c;
      }
    </style>
  </defs>
  <path class="st3" d="M119.71,215.88c-4.69-12.27-4.73-25.16-9-36.39-5.1-13.42-9.66-26.69-13.96-40.4-1.37-4.38-3.69-7.8-7.59-10.33-7.39-4.8-15.84-7.12-24.66-8.13-3.19-.36-10.49-1.94-11.17-5.09-1.3-6.02,11.49-13.53,17.57-14.56,8.4-1.43,17.89.09,24.35,5.36l12.43,10.15c8.56,4.65,17.2,7.83,26.83,9.52,14.98,2.64,29.8,3.84,45.05,5.09,7.62.62,14.6.62,22.19-.05l33.78-3c6-.53,11.66-1.13,17.58-2.88,16.34-4.83,32.2-10.39,47.32-18.36,10.5-5.54,19.3-12.97,28.51-20.19,9.75-7.65,17.55-4.55,27.55.32,5.47,2.67,10.72,6.17,13.58,11.81,1.63,3.22-1.56,6.5-4.76,6.99-11.63,1.76-19.17.39-29.69,3.92-2.65.89-5.19,2.38-6.42,5.12-5.73,12.75-10.57,25.76-12.58,39.72l-2.89,20.09-4.44,28.32c-1.45,9.27-5.39,17.27-10.97,24.51-4.81,6.24-10.37,10.42-18.18,12.34-12.56,3.09-27.04,2.65-40.07,3.71-11.9.19-23.6.21-35.52-.16l-20.31-.63-22.42-.24c-19.6-3.97-29.82-10.64-42.11-26.57h0ZM258.3,162.17c0-4.44-3.6-8.05-8.05-8.05s-8.05,3.6-8.05,8.05,3.6,8.05,8.05,8.05,8.05-3.6,8.05-8.05ZM195.86,171.47c0-4.47-3.62-8.09-8.09-8.09s-8.09,3.62-8.09,8.09,3.62,8.09,8.09,8.09,8.09-3.62,8.09-8.09Z"/>
  <path class="st0" d="M167.8,124.35l-23.84-2.12c-5.13-.46-10.31-.9-15.15-2.74l-14.62-5.55c-3.56-1.35-5.76-5.02-4.24-8.47,2.89-6.57,17.57-15.48,24.09-18.72,8.18-4.06,16.15-6.95,24.8-9.49l24.41-7.18c1.17-5.09,4.02-8.13,8.92-9.64,7.61-2.35,15.63-.28,19.7,7.23,10.09-1.98,19.65-1.59,29.81-1.76,18.9-.31,37.39,1.12,55.54,6.19,5.39,1.5,13.4,4.1,13.23,10.38-.06,2.27-1.27,4.57-3.54,6.08-10.63,7.04-21.46,13.68-33.67,18.11-18.49,6.71-37.34,10.77-56.59,14.82-12.75,2.68-26.7,4.55-39.62,3.57l-9.22-.7h0Z"/>
  <circle class="st2" cx="187.77" cy="171.47" r="8.09"/>
  <circle class="st2" cx="250.25" cy="162.17" r="8.05" transform="translate(50.09 383.21) rotate(-80.78)"/>
  <path class="st1" d="M887.78,215.02c-18.04,21.66-56.69,17.67-77.54,2.13-.95-4.52,3.43-10.02,6.69-12.46,16.08,12.42,47.28,16.97,59.11.33,5.25-7.39,7.65-16.72,4.69-25.13-18.04,19.93-47.26,19.86-64.64,1.01-16.57-17.97-14.8-47.58,5.59-63.24,18.12-13.92,43.4-11.28,59.15,5.19,1.93-4.33.82-7.84,1.35-12.08,4.95-.65,9.54-.81,14.99.09l-.45,84.24c-.04,6.82-4.73,14.88-8.93,19.93h-.01ZM881.34,151.47c0-16.7-13.54-30.23-30.23-30.23s-30.23,13.54-30.23,30.23,13.54,30.23,30.23,30.23,30.23-13.54,30.23-30.23ZM502.28,188.43c-16.78,19.06-44.72,19.89-62.48,1.79-18.4-18.75-16.41-54.14,1.63-70.1,18.1-16.01,42.35-16.06,61.29,2.35l1.11-47.81c4.4-2.23,9.76-1.87,15.32-.35l.18,126.43c-4.88,2.25-9.95,1.64-15.03.62l-2.03-12.94h.01ZM492.63,182.28c10.15-8.56,14.08-21.62,11.18-34.19-2.5-10.82-10.92-21.31-23.01-24.17-17.99-4.26-34.1,6.11-37.18,23.87-2.86,16.49,2.65,33.24,18.38,39.57,10.33,4.16,21.73,2.42,30.63-5.08h0ZM713.25,194.23c-8.93-7.44-10.2-18.62-7.17-29.14,6.59-22.84,42.25-22.2,63.12-17.89,2.85-11.38-5.76-20.96-16.91-23.07-11.84-2.24-23.03,1.59-34.66,5.67-2.31-3.07-5.43-9.51-3.87-12.83,18.12-9.17,46.61-12.31,62.65,2.94,5.45,5.19,8.72,13.97,8.71,21.43l-.07,60.12c-4.89,1.41-9.62,1.28-14.42.11l-1.62-9.62c-15.27,14.22-38.92,16.29-55.76,2.27h0ZM768.73,176.03c2.82-5.41.83-11.22.86-16.23-13.46-4.39-43.55-7.65-48.34,8.73-1.75,5.98-.96,13.01,4.45,16.94,13.52,9.83,34.97,5.99,43.03-9.44ZM544.91,191.43c-9.28-10.08-6.98-27.15,1.68-36.33,12.31-13.05,39.26-10.99,57.44-7.91,1.4-11.54-5.86-20.95-16.9-23.04-11.93-2.26-23.11,1.08-34.82,5.79-3.13-3.64-4.59-7.97-4.73-12.96,15.15-7.28,33.27-10.2,49.66-5.18,16.43,5.04,22.72,21.41,22.46,37.52l-.85,52.57c-4.6.78-9.2.63-13.52.07-1.22-3.16.66-6.46-2.26-9.38-16.99,14.44-42.56,15.8-58.17-1.15h.01ZM587.68,189.02c11.52-3.12,22.49-17.62,15.16-28.32-9.7-5.75-41.26-8.86-47.32,7.87-1.58,4.35-.73,12.13,3.16,15.57,8.14,7.21,17.51,7.99,29,4.88h0ZM1267.42,156.99c0,26.07-21.13,47.2-47.2,47.2s-47.2-21.13-47.2-47.2,21.13-47.2,47.2-47.2,47.2,21.13,47.2,47.2ZM1253.15,156.14c0-18.2-14.76-32.96-32.96-32.96s-32.96,14.76-32.96,32.96,14.76,32.96,32.96,32.96,32.96-14.76,32.96-32.96ZM1003.01,110.78l.04,90.1c-4.79,2.2-10,1.5-15.05.65l-1.61-10.02c-12.14,12.15-29.15,15.75-45.04,8.38-11.31-5.25-18.11-17.27-18.14-30.05l-.15-59.06c5.73-.78,10.46-.75,15.76.07l.19,56.09c.02,5.34,2.09,11.48,5.73,15.26,6.89,7.15,16.91,8.79,26.08,5.56,8.11-2.86,16.25-10.66,16.31-20.94l.33-55.99c4.85-.78,9.22-.84,15.54-.05h.01ZM1075.46,201.12c-18.52,6.72-38.67.85-53.16-11.29,2.05-4.97,4.05-8.48,8.2-11.16,11.41,8.59,25.97,13.76,39.64,9.32,5.1-1.66,7.67-7.37,7.61-11.42-.07-4.95-4.02-8.42-9.07-10.12l-25.31-8.56c-13.66-4.62-21.11-16.8-15.57-31.16,9.06-23.46,45.23-20.1,62.58-7.29-.82,4.81-3.33,8.58-6.89,11.94-11.08-7.53-39.91-14.66-41.97,2.02-2.42,19.54,53,10.98,51.27,43.93-.57,10.86-6.02,19.68-17.34,23.79h0ZM690.35,186.32c.39,3.79,1.42,9.31-.27,12.77-9.42,5.75-22,5.36-31.84.08-6.81-3.66-10.36-11.17-10.39-18.89l-.17-54.9c-3.49-1.59-7.95.63-10.77-1.62-3.63-2.9-2.53-9.26-.93-12.97l11.5-.86.49-26c5.16-.53,10.21-.94,14.95.46l1.09,25.71c8.55,1.25,18.52-1.32,26.14,1.15,3.13,1.06,2.78,11.39-.38,12.48-8.07,2.79-17.02-.2-26.26,1.38l-.23,52.24c-.03,7.44,6.92,13.14,13.78,11.72l13.29-2.75ZM1161.67,186.16c1.03,3.2,1.78,9.31.02,13-7.78,4.91-18.87,5.06-27.66,2-9.22-3.21-14.43-11.35-14.45-20.87l-.1-54.85-11.15-1.38c-2.27-4.01-1.71-9-.75-13.34,4.14-.57,7.37,0,11.46-1.07l.73-25.67c5.09-.56,10.21-1.01,14.82.54l1.04,25.71,26.53.31c.69,5.17,1.21,10.11-.76,14.28l-26.23.25-.02,53.83c0,7.4,8.4,11.48,14.76,10.01l11.76-2.72v-.03Z"/>
</svg>